<svg width="119" height="36" viewBox="0 0 119 36" fill="none" xmlns="http://www.w3.org/2000/svg">
<path d="M79.76 12.4C81.08 12.4 82.1533 12.6933 82.98 13.28C83.8067 13.8533 84.22 14.8267 84.22 16.2C84.22 16.7067 84.1 17.1667 83.86 17.58C83.6333 17.98 83.3333 18.3267 82.96 18.62C83.5733 18.94 84.0733 19.3733 84.46 19.92C84.86 20.4667 85.06 21.16 85.06 22C85.06 23.2533 84.62 24.2333 83.74 24.94C82.8733 25.6467 81.7133 26 80.26 26H74.68V12.4H79.76ZM79.38 14.56H77.26V17.94H79.18C79.9 17.94 80.46 17.8067 80.86 17.54C81.2733 17.26 81.48 16.8267 81.48 16.24C81.48 15.6 81.2933 15.16 80.92 14.92C80.5467 14.68 80.0333 14.56 79.38 14.56ZM80.24 20.04H77.26V23.86H80.06C80.7533 23.86 81.3067 23.7 81.72 23.38C82.1467 23.06 82.36 22.6067 82.36 22.02C82.36 21.38 82.1667 20.8933 81.78 20.56C81.3933 20.2133 80.88 20.04 80.24 20.04ZM89.2073 23.1C89.2073 23.38 89.3207 23.6333 89.5473 23.86C89.774 24.0733 90.074 24.18 90.4473 24.18C90.8073 24.18 91.1673 24.1 91.5273 23.94C91.9007 23.78 92.254 23.54 92.5873 23.22V21.74H90.6273C90.174 21.74 89.8207 21.88 89.5673 22.16C89.3273 22.44 89.2073 22.7533 89.2073 23.1ZM90.4873 26.24C89.3007 26.24 88.4207 25.9533 87.8473 25.38C87.274 24.7933 86.9873 24.0333 86.9873 23.1C86.9873 22.1 87.3273 21.3333 88.0073 20.8C88.6873 20.2667 89.574 20 90.6673 20H92.5673C92.554 19.5067 92.4073 19.1267 92.1273 18.86C91.8607 18.58 91.4873 18.44 91.0073 18.44C90.554 18.44 90.0607 18.5067 89.5273 18.64C88.994 18.76 88.5473 18.9067 88.1873 19.08L87.4873 16.92C87.8607 16.6667 88.4273 16.46 89.1873 16.3C89.9607 16.1267 90.554 16.04 90.9673 16.04C92.1273 16.04 93.1207 16.38 93.9473 17.06C94.774 17.7267 95.1873 18.58 95.1873 19.62V26H93.8473L93.2073 25.18C92.8473 25.46 92.4207 25.7067 91.9273 25.92C91.4473 26.1333 90.9673 26.24 90.4873 26.24ZM99.7198 17.34C100.16 16.9 100.707 16.5533 101.36 16.3C102.027 16.0467 102.62 15.92 103.14 15.92C104.46 15.92 105.393 16.3067 105.94 17.08C106.5 17.8533 106.78 18.8 106.78 19.92V26H104.18V20.04C104.18 19.4267 104.033 18.96 103.74 18.64C103.447 18.3067 103.02 18.14 102.46 18.14C102.087 18.14 101.693 18.24 101.28 18.44C100.88 18.6267 100.513 18.8467 100.18 19.1V26H97.5798V16.3H98.9398L99.7198 17.34ZM111.901 11.88V19.84L116.061 16.02L117.521 17.86L114.801 20.24L118.361 26H115.381L112.941 21.9L111.901 22.82V26H109.321V12.1L111.901 11.88Z" fill="#9337FD"/>
<path d="M5.82567 12.0841C3.4954 12.538 1.58882 14.0285 0.597699 16.1772C0.14375 17.1683 0 17.8492 0 19.1278C0 20.0736 0.0302632 20.3686 0.174014 20.8982C0.605265 22.5022 1.55099 23.9019 2.85988 24.8854C3.46514 25.3394 4.53949 25.8538 5.3339 26.0657C6.26449 26.3153 7.95923 26.3153 8.88983 26.0657C11.4168 25.3848 13.3612 23.4479 14.0497 20.8982C14.2994 19.9828 14.2994 18.2805 14.0497 17.3499C13.3764 14.838 11.4244 12.8785 8.92765 12.2051C8.14838 11.9933 6.58982 11.9327 5.82567 12.0841ZM7.9668 15.2693C8.77634 15.4584 9.25298 15.7383 9.88095 16.3587C11.4925 17.9703 11.4925 20.2854 9.88095 21.8969C8.26943 23.5084 5.95429 23.5084 4.34277 21.8969C2.73126 20.2854 2.73126 17.9703 4.34277 16.3587C5.37172 15.3374 6.63521 14.9591 7.9668 15.2693Z" fill="#F8F9FA"/>
<path d="M48.1185 12.0841C45.7883 12.538 43.8817 14.0285 42.8905 16.1772C42.4366 17.1683 42.2928 17.8492 42.2928 19.1278C42.2928 20.0736 42.3231 20.3686 42.4669 20.8982C42.8981 22.5022 43.8438 23.9019 45.1527 24.8854C45.758 25.3394 46.8323 25.8538 47.6267 26.0657C48.5573 26.3153 50.2521 26.3153 51.1827 26.0657C53.7097 25.3848 55.6541 23.4479 56.3426 20.8982C56.5922 19.9828 56.5922 18.2805 56.3426 17.3499C55.6692 14.838 53.7172 12.8785 51.2205 12.2051C50.4412 11.9933 48.8827 11.9327 48.1185 12.0841ZM50.2596 15.2693C51.0692 15.4584 51.5458 15.7383 52.1738 16.3587C53.7853 17.9703 53.7853 20.2854 52.1738 21.8969C50.5623 23.5084 48.2471 23.5084 46.6356 21.8969C45.0241 20.2854 45.0241 17.9703 46.6356 16.3587C47.6646 15.3374 48.9281 14.9591 50.2596 15.2693Z" fill="#F8F9FA"/>
<path d="M13.4445 12.4472C13.4672 12.5002 14.481 15.5492 15.7067 19.2186L17.931 25.8992H20.2386H22.5461L24.7705 19.2186C25.9961 15.5492 27.01 12.5002 27.0327 12.4472C27.0554 12.3716 26.6695 12.3564 25.1488 12.3716L23.2271 12.3943L21.7593 17.1759C20.9498 19.8088 20.2613 21.965 20.2386 21.965C20.2159 21.965 19.5274 19.8088 18.7178 17.1759L17.2501 12.3943L15.3284 12.3716C13.8076 12.3564 13.4218 12.3716 13.4445 12.4472Z" fill="#F8F9FA"/>
<path d="M27.8044 19.1278V25.8992H29.3175H30.8307V19.1278V12.3564H29.3175H27.8044V19.1278Z" fill="#F8F9FA"/>
<path d="M31.5873 13.8318V15.3071H33.4787H35.3702V20.6032V25.8992H36.8833H38.3965V20.6032V15.3071H40.288H42.1794V13.8318V12.3564H36.8833H31.5873V13.8318Z" fill="#F8F9FA"/>
<path d="M57.311 19.1278V25.8992H58.8242H60.3374V21.7607V17.6298L62.1985 20.2324C63.2199 21.6624 64.0824 22.8351 64.1203 22.8351C64.1581 22.8351 65.0206 21.6624 66.042 20.2324L67.9032 17.6298V21.7607V25.8992H69.4163H70.9295V19.1278V12.3564H69.3936H67.8578L66.0874 14.8607C65.1114 16.2453 64.2716 17.4255 64.2262 17.4861C64.1581 17.5768 63.7798 17.0926 62.2591 14.9742L60.3828 12.3564H58.8469H57.311V19.1278Z" fill="#F8F9FA"/>
</svg>
